<svg width="789" height="803" viewBox="0 0 789 803" fill="none" xmlns="http://www.w3.org/2000/svg">
<path d="M394.5 800.491C612.376 800.491 789 621.295 789 400.246C789 179.196 612.376 0 394.5 0C176.624 0 0 179.196 0 400.246C0 621.295 176.624 800.491 394.5 800.491Z" fill="#004E92" fill-opacity="0.7"/>
<path d="M471.173 390.207C450.149 406.518 424.179 416.556 394.498 416.556C366.055 416.556 338.848 406.518 317.824 390.207C260.937 419.065 221.364 478.034 221.364 547.044V604.76H567.633V547.044C567.633 478.036 528.06 417.811 471.173 390.207Z" fill="white"/>
<path d="M567.633 617.307H221.365C213.946 617.307 208.999 612.288 208.999 604.76V547.044C208.999 475.528 248.572 410.284 312.879 378.916C316.589 376.407 322.773 377.66 326.483 380.171C346.27 396.482 369.766 404.01 395.737 404.01C421.708 404.01 443.968 395.226 464.992 380.171C468.702 377.662 473.649 376.407 478.596 378.916C542.903 410.282 582.476 475.526 582.476 547.044V604.76C580 611.033 573.818 617.307 567.633 617.307ZM233.732 592.213H555.268V547.044C555.268 486.819 523.115 432.867 472.411 404.01C448.915 420.32 422.944 429.103 394.5 429.103C366.057 429.103 340.087 420.32 316.589 404.01C264.649 432.867 233.732 486.819 233.732 547.044V592.213Z" fill="#183651"/>
<path d="M270.831 554.572V547.044C270.831 508.15 288.145 471.762 317.824 447.923C341.321 459.215 367.292 465.489 394.498 465.489C421.705 465.489 447.676 459.217 471.172 447.923C500.853 471.762 518.165 506.894 518.165 547.044V554.572H270.831Z" fill="#FBBD5E"/>
<path d="M683.882 345.038H659.148V370.132H683.882V345.038Z" fill="#183651"/>
<path d="M683.882 395.227H659.148V420.321H683.882V395.227Z" fill="#183651"/>
<path d="M683.882 444.159H659.148V469.253H683.882V444.159Z" fill="#183651"/>
<path d="M129.852 345.038H105.118V370.132H129.852V345.038Z" fill="#183651"/>
<path d="M129.852 395.227H105.118V420.321H129.852V395.227Z" fill="#183651"/>
<path d="M129.852 444.159H105.118V469.253H129.852V444.159Z" fill="#183651"/>
<path d="M456.333 707.643H431.599V732.737H456.333V707.643Z" fill="#183651"/>
<path d="M406.867 707.643H382.133V732.737H406.867V707.643Z" fill="#183651"/>
<path d="M357.399 707.643H332.666V732.737H357.399V707.643Z" fill="#183651"/>
<path d="M456.333 82.8101H431.599V107.904H456.333V82.8101Z" fill="#183651"/>
<path d="M406.867 82.8101H382.133V107.904H406.867V82.8101Z" fill="#183651"/>
<path d="M357.399 82.8101H332.666V107.904H357.399V82.8101Z" fill="#183651"/>
<path d="M394.5 372.643C438.895 372.643 474.884 336.13 474.884 291.088C474.884 246.047 438.895 209.533 394.5 209.533C350.105 209.533 314.116 246.047 314.116 291.088C314.116 336.13 350.105 372.643 394.5 372.643Z" fill="white"/>
<path d="M394.5 383.934C343.797 383.934 301.749 342.529 301.749 289.833C301.749 237.136 342.56 195.731 394.5 195.731C445.203 195.731 487.251 237.136 487.251 289.833C487.251 342.529 445.203 383.934 394.5 383.934ZM394.5 222.08C357.399 222.08 326.483 253.447 326.483 291.088C326.483 328.729 357.399 360.096 394.5 360.096C431.601 360.096 462.517 328.729 462.517 291.088C462.517 253.447 431.599 222.08 394.5 222.08Z" fill="#183651"/>
<path d="M117.483 683.806C146.852 683.806 170.66 659.651 170.66 629.854C170.66 600.057 146.852 575.902 117.483 575.902C88.1139 575.902 64.3055 600.057 64.3055 629.854C64.3055 659.651 88.1139 683.806 117.483 683.806Z" fill="white"/>
<path d="M117.483 696.351C81.6196 696.351 51.9387 666.238 51.9387 629.852C51.9387 593.467 81.6196 563.354 117.483 563.354C153.347 563.354 183.027 593.467 183.027 629.852C183.027 666.24 153.348 696.351 117.483 696.351ZM117.483 588.449C95.2236 588.449 76.6725 607.269 76.6725 629.854C76.6725 652.438 95.222 671.259 117.483 671.259C139.744 671.259 158.294 652.439 158.294 629.854C158.294 607.269 139.744 588.449 117.483 588.449Z" fill="#183651"/>
<path d="M117.483 683.804C59.3584 683.804 12.3652 731.482 12.3652 790.453H222.601C222.601 731.483 175.607 683.804 117.483 683.804Z" fill="#F06151"/>
<path d="M222.601 803H12.3669C4.94707 803 0 797.981 0 790.453C0 725.209 53.1774 671.257 117.485 671.257C181.792 671.257 234.969 725.209 234.969 790.453C234.968 797.981 230.021 803 222.601 803ZM24.7338 777.906H208.998C202.816 731.482 164.478 696.351 116.247 696.351C68.0171 696.351 30.9164 731.484 24.7338 777.906Z" fill="#183651"/>
<path d="M117.483 120.451C146.852 120.451 170.66 96.2956 170.66 66.4988C170.66 36.702 146.852 12.5469 117.483 12.5469C88.1139 12.5469 64.3055 36.702 64.3055 66.4988C64.3055 96.2956 88.1139 120.451 117.483 120.451Z" fill="white"/>
<path d="M117.483 132.996C81.6196 132.996 51.9387 102.883 51.9387 66.4973C51.9387 30.1115 81.6196 0 117.483 0C153.347 0 183.027 30.1131 183.027 66.4989C183.027 102.885 153.348 132.996 117.483 132.996ZM117.483 25.094C95.2236 25.094 76.6725 43.9137 76.6725 66.4989C76.6725 89.0842 95.2236 107.904 117.483 107.904C139.742 107.904 158.294 89.0842 158.294 66.4989C158.294 43.9137 139.744 25.094 117.483 25.094Z" fill="#183651"/>
<path d="M117.483 120.449C59.3584 120.449 12.3652 168.127 12.3652 227.098H222.601C222.601 168.128 175.607 120.449 117.483 120.449Z" fill="#2EA0DA"/>
<path d="M222.601 239.645H12.3669C4.94707 239.645 0 234.626 0 227.098C0 161.854 53.1774 107.902 117.485 107.902C181.792 107.902 234.969 161.854 234.969 227.098C234.968 234.626 230.021 239.645 222.601 239.645ZM24.7338 214.551H208.998C202.816 168.127 164.478 132.996 116.247 132.996C68.0171 132.996 30.9164 168.129 24.7338 214.551Z" fill="#183651"/>
<path d="M671.516 683.806C700.885 683.806 724.693 659.651 724.693 629.854C724.693 600.057 700.885 575.902 671.516 575.902C642.147 575.902 618.338 600.057 618.338 629.854C618.338 659.651 642.147 683.806 671.516 683.806Z" fill="white"/>
<path d="M671.515 696.351C635.652 696.351 605.971 666.238 605.971 629.852C605.971 593.467 635.652 563.354 671.515 563.354C707.379 563.354 737.06 593.467 737.06 629.852C737.058 666.24 707.379 696.351 671.515 696.351ZM671.515 588.449C649.256 588.449 630.705 607.269 630.705 629.854C630.705 652.438 649.254 671.259 671.515 671.259C693.775 671.259 712.326 652.439 712.326 629.854C712.324 607.269 693.775 588.449 671.515 588.449Z" fill="#183651"/>
<path d="M671.516 683.804C613.391 683.804 566.398 731.482 566.398 790.453H776.633C776.632 731.483 729.639 683.804 671.516 683.804Z" fill="#4FBF9F"/>
<path d="M776.632 803H566.398C558.978 803 554.031 797.981 554.031 790.453C554.031 725.209 607.208 671.257 671.516 671.257C735.823 671.257 789 725.209 789 790.453C788.999 797.981 784.053 803 776.632 803ZM580 777.906H764.265C758.082 731.482 719.744 696.351 671.514 696.351C623.284 696.351 584.947 731.484 580 777.906Z" fill="#183651"/>
<path d="M671.516 120.451C700.885 120.451 724.693 96.2956 724.693 66.4988C724.693 36.702 700.885 12.5469 671.516 12.5469C642.147 12.5469 618.338 36.702 618.338 66.4988C618.338 96.2956 642.147 120.451 671.516 120.451Z" fill="white"/>
<path d="M671.515 132.996C635.652 132.996 605.971 102.883 605.971 66.4973C605.971 30.1115 635.652 0 671.515 0C707.379 0 737.06 30.1131 737.06 66.4989C737.06 102.885 707.379 132.996 671.515 132.996ZM671.515 25.094C649.256 25.094 630.705 43.9137 630.705 66.4989C630.705 89.0842 649.254 107.904 671.515 107.904C693.775 107.904 712.326 89.0842 712.326 66.4989C712.326 43.9137 693.775 25.094 671.515 25.094Z" fill="#183651"/>
<path d="M671.516 120.449C613.391 120.449 566.398 168.127 566.398 227.098H776.633C776.632 168.128 729.639 120.449 671.516 120.449Z" fill="white"/>
<path d="M776.632 239.645H566.398C558.978 239.645 554.031 234.626 554.031 227.098C554.031 161.854 607.208 107.902 671.516 107.902C735.823 107.902 789 161.854 789 227.098C788.999 234.626 784.053 239.645 776.632 239.645ZM580 214.551H764.265C758.082 168.127 719.744 132.996 671.514 132.996C623.284 132.996 584.947 168.129 580 214.551Z" fill="#183651"/>
</svg>
