<svg width="415" height="300" viewBox="0 0 415 300" fill="none" xmlns="http://www.w3.org/2000/svg">
<path d="M325.68 48.2912H275.573V39.9466L268.672 44.2418C268.394 44.4166 266.385 45.7066 263.652 47.9652C260.213 41.9595 256.031 36.9886 252.218 32.5092C245.194 24.259 239.131 17.1335 239.131 5.76471V0L233.683 1.13404C232.244 1.43173 200.357 8.51475 188.664 49.137C185.22 46.1224 182.583 44.4449 182.259 44.2418L175.358 39.9466V48.2912H88.8093C76.2506 48.2912 66.0333 58.8898 66.0333 71.9171V223.122C66.0333 236.15 76.2506 246.748 88.8093 246.748H161.693V265.649H157.137C144.579 265.649 134.361 276.248 134.361 289.275V294H280.128V289.275C280.128 276.248 269.911 265.649 257.352 265.649H252.797V246.748H325.68C338.239 246.748 348.456 236.15 348.456 223.122V71.9171C348.456 58.8898 338.239 48.2912 325.68 48.2912ZM183.64 57.1273C189.703 62.6699 198.134 72.7676 198.134 86.0926H207.245C207.245 79.6947 205.783 73.9536 203.578 68.9166L212.228 70.1782C212.606 67.3904 213.239 64.5647 214.105 61.7769L205.432 58.8756C204.462 61.9989 203.76 65.1743 203.305 68.3212C201.318 63.9457 198.777 60.1467 196.144 56.9147C202.922 26.8295 221.503 15.7112 230.504 12.035C232.321 23.4227 238.949 31.205 245.39 38.77C249.481 43.5802 253.626 48.5984 256.746 54.6135C250.314 61.7627 243.686 72.4179 243.686 86.0926H252.797C252.797 72.8385 261.233 62.7172 267.301 57.1509C269.155 66.7714 273.865 74.3836 278.784 82.3361C286.164 94.2624 293.794 106.595 293.794 128.619H302.904C302.904 103.821 294.163 89.6979 286.455 77.2329C286.332 77.0344 286.214 76.8407 286.091 76.6422H321.125V199.497H259.63L245.964 218.397H93.3645V76.6422H164.84C164.717 76.8407 164.599 77.0344 164.476 77.2329C156.769 89.6979 148.027 103.821 148.027 128.619H157.137C157.137 106.595 164.767 94.2624 172.147 82.3408C177.071 74.3789 181.781 66.7619 183.64 57.1273ZM270.239 284.55H144.251C146.132 279.05 151.197 275.099 157.137 275.099H257.352C263.292 275.099 268.357 279.05 270.239 284.55ZM243.686 265.649H170.803V246.748H243.686V265.649ZM339.346 223.122C339.346 230.938 333.215 237.298 325.68 237.298H88.8093C81.275 237.298 75.1437 230.938 75.1437 223.122V71.9171C75.1437 64.1016 81.275 57.7416 88.8093 57.7416H174.074C173.19 61.0397 171.915 64.1442 170.343 67.1919H93.3645C88.3401 67.1919 84.2541 71.4304 84.2541 76.6422V218.397C84.2541 223.609 88.3401 227.848 93.3645 227.848H245.964C248.816 227.848 251.544 226.435 253.252 224.068L264.185 208.947H321.125C326.149 208.947 330.235 204.708 330.235 199.497V76.6422C330.235 71.4304 326.149 67.1919 321.125 67.1919H280.588C279.017 64.1442 277.746 61.0397 276.858 57.7416H325.68C333.215 57.7416 339.346 64.1016 339.346 71.9171V223.122Z" fill="#004E92"/>
<path d="M321.125 218.397H330.235V227.848H321.125V218.397Z" fill="#004E92"/>
<path d="M284.683 218.397H312.015V227.848H284.683V218.397Z" fill="#004E92"/>
<path d="M266.463 218.397H275.573V227.848H266.463V218.397Z" fill="#004E92"/>
<path d="M202.69 157.201C202.69 170.101 212.807 180.596 225.689 180.596C238.125 180.596 248.242 170.101 248.242 157.201C248.242 153.142 247.212 149.126 245.272 145.592L225.466 109.643L205.66 145.596C203.719 149.126 202.69 153.142 202.69 157.201ZM213.572 150.284L225.466 128.694L237.359 150.284C238.516 152.386 239.131 154.782 239.131 157.201C239.131 164.889 233.1 171.145 225.242 171.145C217.831 171.145 211.8 164.889 211.8 157.201C211.8 154.782 212.415 152.386 213.572 150.284Z" fill="#004E92"/>
<path d="M258.432 118.833C260.673 127.797 266.025 133.874 270.881 139.383C276.047 145.252 280.128 149.882 280.128 156.97C280.128 173.206 268.321 180.596 257.352 180.596V190.046C273.2 190.046 289.239 178.687 289.239 156.97C289.239 146.216 283.326 139.501 277.609 133.009C271.874 126.502 266.463 120.355 266.463 109.719V100.887L259.379 105.787C257.776 106.898 243.686 116.976 243.686 128.619H252.797C252.797 125.59 255.462 121.905 258.432 118.833Z" fill="#004E92"/>
<path d="M193.579 190.046V180.596C182.61 180.596 170.803 173.206 170.803 156.97C170.803 149.882 174.885 145.252 180.046 139.383C184.901 133.869 190.258 127.788 192.5 118.819C195.474 121.886 198.134 125.571 198.134 128.619H207.245C207.245 116.976 193.156 106.898 191.552 105.787L184.469 100.887V109.719C184.469 120.355 179.057 126.502 173.322 133.009C167.605 139.501 161.693 146.216 161.693 156.97C161.693 178.687 177.732 190.046 193.579 190.046Z" fill="#004E92"/>
<path d="M232.872 33.0762L227.174 25.7002C227.051 25.8041 223.994 28.3557 220.109 32.8919L226.923 39.1669C230.253 35.2781 232.845 33.0951 232.872 33.0762Z" fill="#004E92"/>
<path d="M221.653 46.1508L214.146 40.7925C212.292 43.5945 210.62 46.5052 209.176 49.4584L217.307 53.7253C218.56 51.1548 220.027 48.6032 221.653 46.1508Z" fill="#004E92"/>
<path d="M102.475 199.497H111.585V208.947H102.475V199.497Z" fill="#004E92"/>
<path d="M120.696 199.497H129.806V208.947H120.696V199.497Z" fill="#004E92"/>
<path d="M138.917 199.497H148.027V208.947H138.917V199.497Z" fill="#004E92"/>
<path d="M102.475 180.596H148.027V190.046H102.475V180.596Z" fill="#004E92"/>
<path d="M102.475 161.695H148.027V171.145H102.475V161.695Z" fill="#004E92"/>
<path d="M102.475 133.344H111.585V142.795H102.475V133.344Z" fill="#004E92"/>
<path d="M111.585 95.5426H129.806V86.0923H102.475V123.894H111.585V95.5426Z" fill="#004E92"/>
<path d="M12.6 145.92C20.76 144.4 24.84 140.2 24.84 133.32C24.84 130.28 24.44 125.08 23.64 117.72C22.84 109.88 22.44 104.2 22.44 100.68C22.44 94.92 24.04 90.52 27.24 87.48C30.52 84.44 34.88 82.92 40.32 82.92H47.28V92.4H42.36C39.24 92.4 36.92 93.12 35.4 94.56C33.88 95.92 33.12 98.2 33.12 101.4C33.12 103.72 33.28 106.6 33.6 110.04C33.92 113.4 34.12 115.68 34.2 116.88C35 124.56 35.4 130.16 35.4 133.68C35.4 137.92 34.32 141.48 32.16 144.36C30.08 147.16 26.84 149.04 22.44 150V150.24C26.84 151.2 30.08 153.12 32.16 156C34.32 158.88 35.4 162.44 35.4 166.68C35.4 170.2 35 175.8 34.2 183.48C34.12 184.68 33.92 187 33.6 190.44C33.28 193.8 33.12 196.64 33.12 198.96C33.12 202.16 33.88 204.44 35.4 205.8C36.92 207.24 39.24 207.96 42.36 207.96H47.28V217.44H40.32C34.88 217.44 30.52 215.92 27.24 212.88C24.04 209.84 22.44 205.44 22.44 199.68C22.44 196.16 22.84 190.48 23.64 182.64C24.44 175.28 24.84 170.08 24.84 167.04C24.84 160.16 20.76 155.96 12.6 154.44V145.92Z" fill="#000428" fill-opacity="0.4"/>
<path d="M401.082 159.83C392.911 161.288 388.802 165.457 388.753 172.337C388.732 175.377 389.095 180.579 389.843 187.945C390.588 195.791 390.948 201.474 390.923 204.994C390.883 210.754 389.252 215.142 386.031 218.157C382.729 221.172 378.359 222.659 372.919 222.618L365.959 222.565L366.026 213.086L370.946 213.123C374.066 213.147 376.391 212.444 377.921 211.016C379.45 209.667 380.226 207.393 380.249 204.193C380.265 201.873 380.125 198.992 379.83 195.55C379.533 192.187 379.349 189.906 379.278 188.705C378.532 181.02 378.171 175.417 378.196 171.897C378.226 167.657 379.331 164.105 381.511 161.241C383.611 158.457 386.864 156.602 391.271 155.675L391.272 155.435C386.879 154.442 383.653 152.497 381.593 149.602C379.453 146.705 378.398 143.137 378.428 138.898C378.453 135.378 378.892 129.781 379.746 122.107C379.835 120.908 380.051 118.589 380.395 115.152C380.739 111.794 380.919 108.956 380.935 106.636C380.958 103.436 380.214 101.15 378.704 99.7785C377.194 98.327 374.879 97.5895 371.759 97.5658L366.839 97.5286L366.906 88.0488L373.866 88.1015C379.305 88.1427 383.655 89.6957 386.913 92.7604C390.092 95.8246 391.661 100.237 391.62 105.996C391.595 109.516 391.155 115.193 390.3 123.027C389.448 130.381 389.012 135.578 388.991 138.617C388.942 145.497 392.992 149.728 401.141 151.31L401.082 159.83Z" fill="#000428" fill-opacity="0.4"/>
</svg>
