<svg width="931" height="800" viewBox="0 0 931 800" fill="none" xmlns="http://www.w3.org/2000/svg">
<path d="M335 654H595V746H335V654Z" fill="#5A5A5A"/>
<path d="M882.257 667H47.7428C21.3745 667 0 648.597 0 625.894V41.1061C0 18.4032 21.3745 0 47.7428 0H882.257C908.625 0 930 18.4032 930 41.1061V625.894C930 648.597 908.625 667 882.257 667Z" fill="#FFD86E"/>
<path d="M930 41.1065V625.894C930 648.597 908.638 667 882.285 667H824C850.353 667 871.715 648.597 871.715 625.894V41.1065C871.715 18.4034 850.353 0 824 0H882.285C908.638 0 930 18.4034 930 41.1065Z" fill="#FFB509"/>
<path d="M930 568H0V625.907C0 648.603 21.3745 667 47.7428 667H882.257C908.625 667 930 648.603 930 625.907V568Z" fill="#838383"/>
<path d="M930 568V625.909C930 648.604 908.638 667 882.285 667H824C850.353 667 871.715 648.604 871.715 625.909V568H930Z" fill="#5A5A5A"/>
<path d="M931 140H1V41.0389C1 18.3732 22.3738 0 48.7342 0H883.259C909.626 0 931 18.3732 931 41.0389V140Z" fill="#ACACAC"/>
<path d="M931 41.0267V140H871.69V41.0267C871.69 18.3732 850.342 0 824 0H883.318C909.653 0 931 18.3732 931 41.0267Z" fill="#9C9C9C"/>
<path d="M679.634 800H250.366C245.196 800 241 796.404 241 791.972V765.952C241 748.306 257.692 734 278.281 734H651.719C672.308 734 689 748.306 689 765.952V791.972C689 796.404 684.804 800 679.634 800Z" fill="#838383"/>
<path d="M689 765.943V791.973C689 796.404 684.789 800 679.592 800H646.402V765.943C646.402 748.31 629.65 734 609 734H651.598C672.255 734 689 748.304 689 765.943Z" fill="#5A5A5A"/>
<path d="M106.331 291.876C102.844 291.876 99.3492 290.732 96.6856 288.44L52.6827 250.56C47.3554 245.981 47.3554 238.547 52.6827 233.962L96.6856 196.088C102.013 191.503 110.65 191.503 115.977 196.088C121.304 200.673 121.304 208.101 115.977 212.686L81.6131 242.264L115.977 271.841C121.304 276.427 121.304 283.855 115.977 288.44C113.314 290.732 109.819 291.876 106.331 291.876Z" fill="#838383"/>
<path d="M211.541 291.876C208.053 291.876 204.558 290.732 201.895 288.44C196.567 283.855 196.567 276.421 201.895 271.841L236.259 242.264L201.895 212.686C196.567 208.101 196.567 200.667 201.895 196.088C207.222 191.503 215.859 191.503 221.186 196.088L265.189 233.962C270.516 238.547 270.516 245.981 265.189 250.56L221.186 288.44C218.523 290.732 215.028 291.876 211.541 291.876Z" fill="#838383"/>
<path d="M143.146 291.882C141.484 291.882 139.801 291.619 138.16 291.063C131.149 288.697 127.697 281.88 130.453 275.846L165.03 200.092C167.786 194.064 175.706 191.087 182.71 193.459C189.72 195.831 193.172 202.648 190.416 208.682L155.839 284.429C153.729 289.057 148.587 291.882 143.146 291.882Z" fill="#838383"/>
<path d="M164.824 362.757H70.2696C62.7405 362.757 56.6319 357.499 56.6319 351.019C56.6319 344.532 62.7405 339.281 70.2696 339.281H164.824C172.361 339.281 178.462 344.532 178.462 351.019C178.462 357.499 172.361 362.757 164.824 362.757Z" fill="#838383"/>
<path d="M382.615 362.757H216.371C208.841 362.757 202.733 357.499 202.733 351.019C202.733 344.532 208.841 339.281 216.371 339.281H382.615C390.152 339.281 396.253 344.532 396.253 351.019C396.253 357.499 390.152 362.757 382.615 362.757Z" fill="#838383"/>
<path d="M110.551 413.708H70.2696C62.7405 413.708 56.6319 408.456 56.6319 401.97C56.6319 395.489 62.7405 390.231 70.2696 390.231H110.551C118.087 390.231 124.188 395.489 124.188 401.97C124.188 408.456 118.08 413.708 110.551 413.708Z" fill="#838383"/>
<path d="M355.795 413.708H331.261C323.732 413.708 317.623 408.456 317.623 401.97C317.623 395.489 323.732 390.231 331.261 390.231H355.795C363.324 390.231 369.432 395.489 369.432 401.97C369.432 408.456 363.324 413.708 355.795 413.708Z" fill="#838383"/>
<path d="M280.283 413.708H159.802C152.266 413.708 146.165 408.456 146.165 401.97C146.165 395.489 152.266 390.231 159.802 390.231H280.283C287.819 390.231 293.921 395.489 293.921 401.97C293.921 408.456 287.812 413.708 280.283 413.708Z" fill="#838383"/>
<path d="M446.251 413.708H400.302C392.773 413.708 386.664 408.456 386.664 401.97C386.664 395.489 392.773 390.231 400.302 390.231H446.251C453.78 390.231 459.889 395.489 459.889 401.97C459.889 408.456 453.78 413.708 446.251 413.708Z" fill="#838383"/>
<path d="M358.288 251.605H309.824C302.288 251.605 296.187 246.354 296.187 239.867C296.187 233.387 302.288 228.129 309.824 228.129H358.288C365.824 228.129 371.925 233.387 371.925 239.867C371.925 246.354 365.824 251.605 358.288 251.605Z" fill="#838383"/>
<path d="M708.258 251.605H412.562C405.032 251.605 398.924 246.354 398.924 239.867C398.924 233.387 405.032 228.129 412.562 228.129H708.258C715.787 228.129 721.896 233.387 721.896 239.867C721.896 246.354 715.787 251.605 708.258 251.605Z" fill="#838383"/>
<path d="M663.339 304.763H543.569C536.032 304.763 529.931 299.512 529.931 293.025C529.931 286.545 536.032 281.287 543.569 281.287H663.339C670.875 281.287 676.977 286.545 676.977 293.025C676.977 299.512 670.875 304.763 663.339 304.763Z" fill="#838383"/>
<path d="M498.65 304.763H457.474C449.944 304.763 443.836 299.512 443.836 293.025C443.836 286.545 449.944 281.287 457.474 281.287H498.65C506.186 281.287 512.287 286.545 512.287 293.025C512.287 299.512 506.186 304.763 498.65 304.763Z" fill="#838383"/>
<path d="M410.693 304.763H309.817C302.288 304.763 296.179 299.512 296.179 293.025C296.179 286.545 302.288 281.287 309.817 281.287H410.693C418.223 281.287 424.331 286.545 424.331 293.025C424.331 299.512 418.223 304.763 410.693 304.763Z" fill="#838383"/>
<path d="M280.461 464.237H185.906C178.37 464.237 172.268 458.979 172.268 452.498C172.268 446.012 178.37 440.76 185.906 440.76H280.461C287.997 440.76 294.098 446.012 294.098 452.498C294.098 458.979 287.997 464.237 280.461 464.237Z" fill="#838383"/>
<path d="M142.919 464.237H70.2696C62.7405 464.237 56.6319 458.979 56.6319 452.498C56.6319 446.012 62.7405 440.76 70.2696 440.76H142.919C150.448 440.76 156.556 446.012 156.556 452.498C156.556 458.979 150.448 464.237 142.919 464.237Z" fill="#838383"/>
<path d="M451.862 464.237H328.349C320.813 464.237 314.711 458.979 314.711 452.498C314.711 446.012 320.813 440.76 328.349 440.76H451.862C459.399 440.76 465.5 446.012 465.5 452.498C465.5 458.979 459.399 464.237 451.862 464.237Z" fill="#838383"/>
<path d="M539 412H843V501H539V412Z" fill="#64DCFC"/>
<path d="M539 549H843V631H539V549Z" fill="#64DCFC"/>
<path d="M807 412H843V501H807V412Z" fill="#00D1FC"/>
<path d="M807 549H843V631H807V549Z" fill="#00D1FC"/>
<path d="M868.448 431H514.552C507.067 431 501 425.777 501 419.333V360.667C501 354.223 507.067 349 514.552 349H868.448C875.933 349 882 354.223 882 360.667V419.333C882 425.777 875.933 431 868.448 431Z" fill="#4D84B3"/>
<path d="M868.448 563H514.552C507.067 563 501 557.777 501 551.333V492.667C501 486.223 507.067 481 514.552 481H868.448C875.933 481 882 486.223 882 492.667V551.333C882 557.777 875.933 563 868.448 563Z" fill="#4D84B3"/>
<path d="M868.448 695H514.552C507.067 695 501 689.777 501 683.333V624.667C501 618.223 507.067 613 514.552 613H868.448C875.933 613 882 618.223 882 624.667V683.333C882 689.777 875.933 695 868.448 695Z" fill="#4D84B3"/>
<path d="M882 360.667V419.333C882 425.771 875.94 431 868.447 431H837C844.5 431 850.553 425.771 850.553 419.333V360.667C850.553 354.229 844.5 349 837 349H868.447C875.94 349 882 354.229 882 360.667Z" fill="#0077F0"/>
<path d="M882 492.666V551.328C882 557.784 875.94 563 868.447 563H837C844.5 563 850.553 557.784 850.553 551.328V492.666C850.553 486.228 844.5 481 837 481H868.447C875.94 481 882 486.228 882 492.666Z" fill="#0077F0"/>
<path d="M882 624.667V683.333C882 689.771 875.94 695 868.447 695H837C844.5 695 850.553 689.771 850.553 683.333V624.667C850.553 618.217 844.5 613 837 613H868.447C875.94 613 882 618.217 882 624.667Z" fill="#0077F0"/>
<path d="M619.33 402H551.663C544.12 402 538 396.855 538 390.5C538 384.151 544.12 379 551.663 379H619.337C626.88 379 633 384.151 633 390.5C633 396.855 626.88 402 619.33 402Z" fill="#E7E7E7"/>
<path d="M831.328 402H735.679C728.127 402 722 396.855 722 390.5C722 384.151 728.127 379 735.679 379H831.321C838.88 379 845 384.151 845 390.5C845 396.855 838.88 402 831.328 402Z" fill="#E7E7E7"/>
<path d="M688.399 402H666.601C659.092 402 653 396.855 653 390.5C653 384.151 659.092 379 666.601 379H688.399C695.915 379 702 384.151 702 390.5C702 396.855 695.908 402 688.399 402Z" fill="#E7E7E7"/>
<path d="M619.33 534H551.663C544.12 534 538 528.631 538 522C538 515.375 544.12 510 551.663 510H619.337C626.88 510 633 515.375 633 522C633 528.631 626.88 534 619.33 534Z" fill="#E7E7E7"/>
<path d="M831.328 534H735.679C728.127 534 722 528.631 722 522C722 515.375 728.127 510 735.679 510H831.321C838.88 510 845 515.375 845 522C845 528.631 838.88 534 831.328 534Z" fill="#E7E7E7"/>
<path d="M688.399 534H666.601C659.092 534 653 528.631 653 522C653 515.375 659.092 510 666.601 510H688.399C695.915 510 702 515.375 702 522C702 528.631 695.908 534 688.399 534Z" fill="#E7E7E7"/>
<path d="M619.33 665H551.663C544.12 665 538 659.849 538 653.5C538 647.151 544.12 642 551.663 642H619.337C626.88 642 633 647.151 633 653.5C633 659.849 626.88 665 619.33 665Z" fill="#E7E7E7"/>
<path d="M831.328 665H735.679C728.127 665 722 659.849 722 653.5C722 647.151 728.127 642 735.679 642H831.321C838.88 642 845 647.151 845 653.5C845 659.849 838.88 665 831.328 665Z" fill="#E7E7E7"/>
<path d="M688.399 665H666.601C659.092 665 653 659.849 653 653.5C653 647.151 659.092 642 666.601 642H688.399C695.915 642 702 647.151 702 653.5C702 659.849 695.908 665 688.399 665Z" fill="#E7E7E7"/>
<path d="M117 69.5C117 82.4825 104.687 93 89.5036 93C74.3133 93 62 82.4825 62 69.5C62 56.5237 74.3133 46 89.5036 46C104.687 46 117 56.5237 117 69.5Z" fill="#FF5770"/>
<path d="M222 69.5C222 82.4825 209.692 93 194.5 93C179.315 93 167 82.4825 167 69.5C167 56.5237 179.315 46 194.5 46C209.692 46 222 56.5237 222 69.5Z" fill="#FFD86E"/>
<path d="M326 69.5C326 82.4825 313.909 93 299 93C284.084 93 272 82.4825 272 69.5C272 56.5237 284.084 46 299 46C313.909 46 326 56.5237 326 69.5Z" fill="#80E0DC"/>
<path d="M117 69.5061C117 82.4859 104.82 93 89.7903 93C82.5036 93 75.8792 90.5344 71 86.5009C85.7303 86.2242 97.5971 75.8269 97.5971 63.0255C97.5971 56.3235 94.349 50.2917 89.1493 46.0184C89.3558 46 89.5838 46 89.7903 46C104.82 46 117 56.5141 117 69.5061Z" fill="#FF435F"/>
<path d="M221 69.5061C221 82.4859 209.088 93 194.369 93C187.25 93 180.793 90.5344 176 86.5009C190.426 86.2242 202.025 75.8269 202.025 63.0255C202.025 56.3235 198.848 50.2917 193.77 46.0184C193.965 46 194.167 46 194.376 46C209.095 46 221 56.5141 221 69.5061Z" fill="#FFB509"/>
<path d="M326 69.5061C326 82.4859 313.804 93 298.782 93C291.498 93 284.898 90.5344 280 86.5009C294.745 86.2242 306.585 75.8269 306.585 63.0255C306.585 56.3235 303.338 50.2917 298.141 46.0184C298.347 46 298.575 46 298.782 46C313.804 46 326 56.5141 326 69.5061Z" fill="#00A8B0"/>
</svg>
