<svg width="895" height="530" viewBox="0 0 895 530" fill="none" xmlns="http://www.w3.org/2000/svg">
<path d="M397.178 368.287L403.593 395.377C403.664 395.679 403.653 395.996 403.56 396.292L374.463 489.387C374.348 489.756 374.113 490.073 373.797 490.285C373.481 490.498 373.103 490.593 372.727 490.555C372.351 490.517 371.999 490.348 371.729 490.077C371.46 489.805 371.29 489.447 371.247 489.062L367.222 452.796C367.195 452.555 367.219 452.311 367.292 452.081L394.001 368.162C394.112 367.812 394.332 367.508 394.627 367.298C394.922 367.087 395.276 366.981 395.636 366.995C395.995 367.009 396.34 367.143 396.619 367.376C396.897 367.61 397.093 367.929 397.178 368.287Z" fill="#2F2E41"/>
<path d="M265.515 496.896C266.502 499.927 368.168 495.885 369.155 494.874C370.016 493.609 370.744 492.254 371.327 490.832C372.255 488.811 373.103 486.79 373.103 486.79L369.155 454.068L268.476 450.41C268.476 450.41 265.959 478.139 265.446 490.832C265.318 494.036 265.318 496.289 265.515 496.896Z" fill="#2F2E41"/>
<path opacity="0.1" d="M356.324 458.494L358.297 486.79H313.881V458.494H356.324Z" fill="black"/>
<path opacity="0.1" d="M299.075 467.589L299.34 467.535L298.088 479.716H273.412V467.589H299.075Z" fill="black"/>
<path d="M152.005 322.068L192.474 376.638L289.204 450.41C289.204 450.41 359.285 465.568 343.492 476.684C327.699 487.8 282.295 466.579 282.295 466.579C282.295 466.579 184.578 413.019 163.85 390.786C143.122 368.554 104.627 331.163 104.627 331.163L152.005 322.068Z" fill="#A0616A"/>
<path d="M108.575 390.786H136.212L204.319 363.501C204.319 363.501 252.684 343.29 248.736 381.691C244.787 420.093 237.878 471.631 237.878 471.631C237.878 471.631 216.163 461.526 204.319 464.558C192.474 467.589 200.37 402.913 200.37 402.913C200.37 402.913 103.64 450.41 94.7564 444.346C85.873 438.283 83.8989 395.839 83.8989 395.839L108.575 390.786Z" fill="#2F2E41"/>
<path opacity="0.1" d="M108.575 390.786H136.212L204.319 363.501C204.319 363.501 252.684 343.29 248.736 381.691C244.787 420.093 237.878 471.631 237.878 471.631C237.878 471.631 216.163 461.526 204.319 464.558C192.474 467.589 200.37 402.913 200.37 402.913C200.37 402.913 103.64 450.41 94.7564 444.346C85.873 438.283 83.8989 395.839 83.8989 395.839L108.575 390.786Z" fill="black"/>
<path d="M152.118 302.174L185.565 351.374L263.541 418.072C263.541 418.072 335.596 435.251 325.725 447.378C315.855 459.505 255.645 435.251 255.645 435.251C255.645 435.251 165.824 368.554 162.863 363.501C159.901 358.448 127.329 310.952 127.329 310.952L152.118 302.174Z" fill="#A0616A"/>
<path opacity="0.1" d="M152.118 302.174L185.565 351.374L263.541 418.072C263.541 418.072 335.596 435.251 325.725 447.378C315.855 459.505 255.645 435.251 255.645 435.251C255.645 435.251 165.824 368.554 162.863 363.501C159.901 358.448 127.329 310.952 127.329 310.952L152.118 302.174Z" fill="black"/>
<path d="M132.264 262.445L153.979 305.899C153.979 305.899 149.044 327.121 141.148 329.142C133.251 331.163 99.6917 302.867 99.6917 302.867L132.264 262.445Z" fill="#D0CDE1"/>
<path opacity="0.1" d="M132.264 262.445L153.979 305.899C153.979 305.899 149.044 327.121 141.148 329.142C133.251 331.163 99.6917 302.867 99.6917 302.867L132.264 262.445Z" fill="black"/>
<path d="M394.819 370.575L400.74 393.818L375.077 478.705L369.155 452.431L394.819 370.575Z" fill="#F2F2F2"/>
<path opacity="0.1" d="M265.515 496.895C266.502 499.927 368.168 495.885 369.155 494.874C370.016 493.609 370.744 492.254 371.327 490.832H265.446C265.318 494.036 265.318 496.289 265.515 496.895Z" fill="black"/>
<path d="M147.07 248.297C171.601 248.297 191.487 227.937 191.487 202.821C191.487 177.706 171.601 157.346 147.07 157.346C122.539 157.346 102.653 177.706 102.653 202.821C102.653 227.937 122.539 248.297 147.07 248.297Z" fill="#A0616A"/>
<path d="M144.109 243.244C144.109 243.244 129.303 269.519 126.342 283.667C123.381 297.815 81.9248 255.371 81.9248 255.371L76.4961 240.718C76.4961 240.718 115.484 222.022 112.523 206.864C109.562 191.706 144.109 243.244 144.109 243.244Z" fill="#A0616A"/>
<path d="M97.7176 406.955L109.562 426.156L180.252 403.387C195.762 398.391 212.77 400.229 226.527 409.103C238.865 417.061 246.762 429.693 228.995 448.388C193.461 485.779 169.772 465.568 169.772 465.568C169.772 465.568 50.3393 523.17 30.5984 494.874C10.8575 466.579 9.87048 452.431 9.87048 452.431C9.87048 452.431 85.873 403.924 97.7176 406.955Z" fill="#2F2E41"/>
<path d="M245.774 473.652C245.774 473.652 277.36 494.874 239.852 504.98C202.344 515.085 174.707 500.938 174.707 500.938C174.707 500.938 142.135 500.938 142.135 483.758C142.135 466.578 152.992 464.557 152.992 464.557L186.552 469.61C186.552 469.61 227.021 458.494 245.774 473.652Z" fill="#D0CDE1"/>
<path d="M183.507 191.382C186.53 192.762 189.528 194.395 192.815 194.796C196.102 195.196 199.845 194.021 201.4 191.03C202.24 189.414 202.336 187.514 202.375 185.684C202.494 180.134 202.102 174.135 198.667 169.841C196.481 167.108 193.29 165.385 191.028 162.718C189.407 160.807 188.328 158.492 187.166 156.258C182.765 147.796 176.25 139.664 167.195 137.224C163.414 136.206 159.447 136.255 155.538 136.312L132.735 136.641C129.044 136.695 125.297 136.756 121.765 137.85C114.425 140.122 109.081 146.441 104.187 152.485C100.525 157.006 96.8537 161.574 94.1056 166.729C90.1655 174.253 88.1732 182.684 88.3186 191.22C88.288 193.409 88.5641 195.591 89.1383 197.7C89.8101 199.634 90.6424 201.506 91.6261 203.294C95.9024 211.894 98.4416 222.635 93.6256 230.931C101.991 227.432 110.269 222.844 115.787 215.518C118.256 212.24 120.192 208.403 123.482 205.998C126.772 203.593 132.133 203.384 134.244 206.914C134.97 208.342 135.343 209.93 135.333 211.54C135.487 214.189 135.482 216.941 136.58 219.346C137.677 221.751 140.291 223.691 142.786 222.971C147.084 221.732 146.672 214.979 149.982 211.912C152.496 209.582 156.374 210.027 159.604 208.97C163.366 207.738 166.19 204.4 167.798 200.706C169.021 197.898 169.003 190.55 171.317 189.03C174.219 187.123 180.818 190.155 183.507 191.382Z" fill="#2F2E41"/>
<path d="M72.9701 235.924C74.9683 235.378 77.0721 235.384 79.0675 235.94C85.4036 237.682 99.6073 242.292 102.653 249.308C106.601 258.403 120.42 272.55 120.42 272.55C120.42 272.55 139.173 291.751 135.225 304.888C131.277 318.026 116.471 333.184 116.471 333.184C116.471 333.184 120.42 395.839 100.679 412.008C80.9377 428.177 73.0414 417.061 73.0414 432.219C73.0414 447.378 11.8446 494.874 0 465.568C0 465.568 5.92228 410.998 3.94819 391.797C2.00256 372.873 4.85085 254.805 72.9701 235.924Z" fill="#D0CDE1"/>
<path d="M104.627 261.434C104.627 261.434 164.837 306.91 153.979 326.11C153.979 326.11 117.459 344.3 109.562 343.29C101.666 342.279 71.0674 306.91 63.171 303.878C55.2747 300.846 51.3265 246.276 104.627 261.434Z" fill="#D0CDE1"/>
<path d="M108.575 390.786H136.212L204.319 363.501C204.319 363.501 252.684 343.29 248.736 381.691C244.787 420.093 237.878 471.631 237.878 471.631C237.878 471.631 216.163 461.526 204.319 464.558C192.474 467.589 200.37 402.913 200.37 402.913C200.37 402.913 103.64 450.41 94.7564 444.346C85.873 438.283 83.8989 395.839 83.8989 395.839L108.575 390.786Z" fill="#000428"/>
<path opacity="0.1" d="M107.676 390.6H135.313L203.42 363.315C203.42 363.315 251.785 343.104 247.837 381.505C243.889 419.907 236.979 471.445 236.979 471.445C236.979 471.445 215.264 461.34 203.42 464.372C191.575 467.403 199.471 402.727 199.471 402.727C199.471 402.727 102.741 450.224 93.8575 444.16C84.9741 438.097 83 395.653 83 395.653L107.676 390.6Z" fill="black" fill-opacity="0.5"/>
<path d="M152.118 302.174L185.565 351.374L263.541 418.072C263.541 418.072 335.596 435.251 325.725 447.378C315.855 459.505 255.645 435.251 255.645 435.251C255.645 435.251 165.824 368.554 162.863 363.501C159.901 358.448 127.329 310.952 127.329 310.952L152.118 302.174Z" fill="#A0616A"/>
<path opacity="0.1" d="M152.118 302.174L185.565 351.374L263.541 418.072C263.541 418.072 335.596 435.251 325.725 447.378C315.855 459.505 255.645 435.251 255.645 435.251C255.645 435.251 165.824 368.554 162.863 363.501C159.901 358.448 127.329 310.952 127.329 310.952L152.118 302.174Z" fill="black"/>
<path d="M132.264 262.445L153.979 305.899C153.979 305.899 149.044 327.121 141.148 329.142C133.251 331.163 99.6917 302.867 99.6917 302.867L132.264 262.445Z" fill="#D0CDE1"/>
<path opacity="0.1" d="M132.264 262.445L153.979 305.899C153.979 305.899 149.044 327.121 141.148 329.142C133.251 331.163 99.6917 302.867 99.6917 302.867L132.264 262.445Z" fill="black"/>
<path d="M394.819 370.575L400.74 393.818L375.077 478.705L369.155 452.431L394.819 370.575Z" fill="#F2F2F2"/>
<path opacity="0.1" d="M265.515 496.895C266.502 499.927 368.168 495.885 369.155 494.874C370.016 493.609 370.744 492.254 371.327 490.832H265.446C265.318 494.036 265.318 496.289 265.515 496.895Z" fill="black"/>
<path d="M147.07 248.297C171.601 248.297 191.487 227.937 191.487 202.821C191.487 177.706 171.601 157.346 147.07 157.346C122.539 157.346 102.653 177.706 102.653 202.821C102.653 227.937 122.539 248.297 147.07 248.297Z" fill="#A0616A"/>
<path d="M144.109 243.244C144.109 243.244 129.303 269.519 126.342 283.667C123.381 297.815 81.9248 255.371 81.9248 255.371L76.4961 240.718C76.4961 240.718 115.484 222.022 112.523 206.864C109.562 191.706 144.109 243.244 144.109 243.244Z" fill="#A0616A"/>
<path d="M97.7176 406.955L109.562 426.156L180.252 403.387C195.762 398.391 212.77 400.229 226.527 409.103C238.865 417.061 246.762 429.693 228.995 448.388C193.461 485.779 169.772 465.568 169.772 465.568C169.772 465.568 50.3393 523.17 30.5984 494.874C10.8575 466.579 9.87048 452.431 9.87048 452.431C9.87048 452.431 85.873 403.924 97.7176 406.955Z" fill="#000428"/>
<path d="M245.774 473.652C245.774 473.652 277.36 494.874 239.852 504.98C202.344 515.085 174.707 500.938 174.707 500.938C174.707 500.938 142.135 500.938 142.135 483.758C142.135 466.578 152.992 464.557 152.992 464.557L186.552 469.61C186.552 469.61 227.021 458.494 245.774 473.652Z" fill="#000428"/>
<path d="M183.507 191.382C186.53 192.762 189.528 194.395 192.815 194.796C196.102 195.196 199.845 194.021 201.4 191.03C202.24 189.414 202.336 187.514 202.375 185.684C202.494 180.134 202.102 174.135 198.667 169.841C196.481 167.108 193.29 165.385 191.028 162.718C189.407 160.807 188.328 158.492 187.166 156.258C182.765 147.796 176.25 139.664 167.195 137.224C163.414 136.206 159.447 136.255 155.538 136.312L132.735 136.641C129.044 136.695 125.297 136.756 121.765 137.85C114.425 140.122 109.081 146.441 104.187 152.485C100.525 157.006 96.8537 161.574 94.1056 166.729C90.1655 174.253 88.1732 182.684 88.3186 191.22C88.288 193.409 88.5641 195.591 89.1383 197.7C89.8101 199.634 90.6424 201.506 91.6261 203.294C95.9024 211.894 98.4416 222.635 93.6256 230.931C101.991 227.432 110.269 222.844 115.787 215.518C118.256 212.24 120.192 208.403 123.482 205.998C126.772 203.593 132.133 203.384 134.244 206.914C134.97 208.342 135.343 209.93 135.333 211.54C135.487 214.189 135.482 216.941 136.58 219.346C137.677 221.751 140.291 223.691 142.786 222.971C147.084 221.732 146.672 214.979 149.982 211.912C152.496 209.582 156.374 210.027 159.604 208.97C163.366 207.738 166.19 204.4 167.798 200.706C169.021 197.898 169.003 190.55 171.317 189.03C174.219 187.123 180.818 190.155 183.507 191.382Z" fill="#2F2E41"/>
<path d="M72.9701 235.924C74.9683 235.378 77.0721 235.384 79.0675 235.94C85.4036 237.682 99.6073 242.292 102.653 249.308C106.601 258.403 120.42 272.55 120.42 272.55C120.42 272.55 139.173 291.751 135.225 304.888C131.277 318.026 116.471 333.184 116.471 333.184C116.471 333.184 120.42 395.839 100.679 412.008C80.9377 428.177 73.0414 417.061 73.0414 432.219C73.0414 447.378 11.8446 494.874 0 465.568C0 465.568 5.92228 410.998 3.94819 391.797C2.00256 372.873 4.85085 254.805 72.9701 235.924Z" fill="#D0CDE1"/>
<path d="M104.627 261.434C104.627 261.434 164.837 306.91 153.979 326.11C153.979 326.11 117.459 344.3 109.562 343.29C101.666 342.279 71.0674 306.91 63.171 303.878C55.2747 300.846 51.3265 246.276 104.627 261.434Z" fill="#D0CDE1"/>
<path d="M497.822 389.449L491.407 416.539C491.336 416.841 491.347 417.158 491.44 417.454L520.537 510.549C520.652 510.918 520.887 511.235 521.203 511.447C521.519 511.66 521.897 511.755 522.273 511.717C522.649 511.679 523.001 511.51 523.271 511.239C523.54 510.967 523.71 510.609 523.753 510.224L527.778 473.958C527.805 473.717 527.781 473.473 527.708 473.243L500.999 389.324C500.888 388.973 500.668 388.67 500.373 388.46C500.078 388.249 499.724 388.143 499.364 388.157C499.005 388.171 498.66 388.305 498.381 388.538C498.103 388.771 497.907 389.091 497.822 389.449Z" fill="#2F2E41"/>
<path d="M629.485 518.057C628.497 521.089 526.832 517.047 525.845 516.036C524.984 514.771 524.256 513.416 523.673 511.994C522.745 509.973 521.896 507.952 521.896 507.952L525.845 475.23L626.523 471.571C626.523 471.571 629.04 499.301 629.554 511.994C629.682 515.197 629.682 517.451 629.485 518.057Z" fill="#2F2E41"/>
<path opacity="0.1" d="M538.676 479.656L536.703 507.952H581.119V479.656H538.676Z" fill="black"/>
<path opacity="0.1" d="M595.925 488.751L595.66 488.697L596.912 500.878H621.588V488.751H595.925Z" fill="black"/>
<path d="M742.995 343.23L702.526 397.8L605.795 471.571C605.795 471.571 535.715 486.73 551.508 497.846C567.301 508.962 612.705 487.74 612.705 487.74C612.705 487.74 710.422 434.181 731.15 411.948C751.878 389.716 790.373 352.325 790.373 352.325L742.995 343.23Z" fill="#A0616A"/>
<path d="M786.425 411.948H758.788L690.681 384.663C690.681 384.663 642.316 364.452 646.264 402.853C650.213 441.255 657.122 492.793 657.122 492.793C657.122 492.793 678.837 482.688 690.681 485.719C702.526 488.751 694.63 424.075 694.63 424.075C694.63 424.075 791.36 471.572 800.244 465.508C809.127 459.445 811.101 417.001 811.101 417.001L786.425 411.948Z" fill="#2F2E41"/>
<path opacity="0.1" d="M786.425 411.948H758.788L690.681 384.663C690.681 384.663 642.316 364.452 646.264 402.853C650.213 441.255 657.122 492.793 657.122 492.793C657.122 492.793 678.837 482.688 690.681 485.719C702.526 488.751 694.63 424.075 694.63 424.075C694.63 424.075 791.36 471.572 800.244 465.508C809.127 459.445 811.101 417.001 811.101 417.001L786.425 411.948Z" fill="black"/>
<path d="M742.882 323.336L709.435 372.536L631.459 439.233C631.459 439.233 559.404 456.413 569.275 468.54C579.145 480.666 639.355 456.413 639.355 456.413C639.355 456.413 729.176 389.716 732.137 384.663C735.098 379.61 767.671 332.114 767.671 332.114L742.882 323.336Z" fill="#A0616A"/>
<path opacity="0.1" d="M742.882 323.336L709.435 372.536L631.459 439.233C631.459 439.233 559.404 456.413 569.275 468.54C579.145 480.666 639.355 456.413 639.355 456.413C639.355 456.413 729.176 389.716 732.137 384.663C735.098 379.61 767.671 332.114 767.671 332.114L742.882 323.336Z" fill="black"/>
<path d="M762.736 283.607L741.021 327.061C741.021 327.061 745.956 348.283 753.852 350.304C761.749 352.325 795.308 324.029 795.308 324.029L762.736 283.607Z" fill="#D0CDE1"/>
<path opacity="0.1" d="M762.736 283.607L741.021 327.061C741.021 327.061 745.956 348.283 753.852 350.304C761.749 352.325 795.308 324.029 795.308 324.029L762.736 283.607Z" fill="black"/>
<path d="M500.181 391.737L494.259 414.98L519.923 499.867L525.844 473.592L500.181 391.737Z" fill="#F2F2F2"/>
<path opacity="0.1" d="M629.485 518.057C628.497 521.089 526.832 517.046 525.845 516.036C524.984 514.77 524.256 513.415 523.673 511.994H629.554C629.682 515.197 629.682 517.451 629.485 518.057Z" fill="black"/>
<path d="M747.93 269.459C723.399 269.459 703.513 249.099 703.513 223.983C703.513 198.868 723.399 178.508 747.93 178.508C772.461 178.508 792.347 198.868 792.347 223.983C792.347 249.099 772.461 269.459 747.93 269.459Z" fill="#A0616A"/>
<path d="M750.891 264.406C750.891 264.406 765.697 290.681 768.658 304.829C771.619 318.977 813.075 276.533 813.075 276.533L818.504 261.88C818.504 261.88 779.516 243.184 782.477 228.026C785.438 212.867 750.891 264.406 750.891 264.406Z" fill="#A0616A"/>
<path d="M797.282 428.117L785.438 447.318L714.748 424.549C699.238 419.553 682.23 421.391 668.473 430.265C656.135 438.223 648.238 450.855 666.005 469.55C701.539 506.941 725.228 486.73 725.228 486.73C725.228 486.73 844.661 544.332 864.401 516.036C884.142 487.74 885.129 473.593 885.129 473.593C885.129 473.593 809.127 425.085 797.282 428.117Z" fill="#2F2E41"/>
<path d="M649.225 494.814C649.225 494.814 617.64 516.036 655.148 526.142C692.655 536.247 720.293 522.099 720.293 522.099C720.293 522.099 752.865 522.099 752.865 504.92C752.865 487.74 742.008 485.719 742.008 485.719L708.448 490.772C708.448 490.772 667.979 479.656 649.225 494.814Z" fill="#D0CDE1"/>
<path d="M711.493 212.544C708.469 213.924 705.472 215.557 702.185 215.957C698.898 216.358 695.155 215.183 693.6 212.192C692.76 210.576 692.664 208.675 692.625 206.845C692.506 201.296 692.898 195.297 696.333 191.003C698.519 188.27 701.71 186.547 703.972 183.88C705.593 181.969 706.672 179.654 707.834 177.42C712.234 168.958 718.75 160.826 727.805 158.386C731.586 157.368 735.553 157.417 739.462 157.474L762.265 157.803C765.955 157.856 769.702 157.918 773.235 159.012C780.575 161.284 785.919 167.603 790.813 173.646C794.475 178.168 798.146 182.736 800.894 187.891C804.834 195.415 806.827 203.846 806.681 212.382C806.712 214.571 806.436 216.753 805.862 218.862C805.19 220.796 804.357 222.668 803.374 224.456C799.097 233.056 796.558 243.797 801.374 252.092C793.008 248.594 784.731 244.006 779.213 236.68C776.744 233.402 774.808 229.565 771.518 227.16C768.228 224.755 762.867 224.546 760.756 228.076C760.03 229.504 759.657 231.092 759.667 232.702C759.513 235.351 759.517 238.103 758.42 240.508C757.323 242.913 754.709 244.853 752.214 244.133C747.916 242.894 748.328 236.141 745.018 233.074C742.504 230.744 738.626 231.189 735.396 230.132C731.634 228.9 728.81 225.562 727.202 221.868C725.979 219.06 725.996 211.712 723.683 210.192C720.781 208.285 714.182 211.316 711.493 212.544Z" fill="#2F2E41"/>
<path d="M822.03 257.086C820.032 256.54 817.928 256.546 815.932 257.102C809.596 258.843 795.393 263.454 792.347 270.469C788.399 279.564 774.58 293.712 774.58 293.712C774.58 293.712 755.827 312.913 759.775 326.05C763.723 339.188 778.529 354.346 778.529 354.346C778.529 354.346 774.58 417.001 794.321 433.17C814.062 449.339 821.959 438.223 821.959 453.381C821.959 468.54 883.155 516.036 895 486.73C895 486.73 889.078 432.159 891.052 412.959C892.997 394.035 890.149 275.967 822.03 257.086Z" fill="#D0CDE1"/>
<path d="M790.373 282.596C790.373 282.596 730.163 328.071 741.021 347.272C741.021 347.272 777.541 365.462 785.438 364.452C793.334 363.441 823.932 328.071 831.829 325.04C839.725 322.008 843.673 267.438 790.373 282.596Z" fill="#D0CDE1"/>
<path d="M786.425 411.948H758.788L690.681 384.663C690.681 384.663 642.316 364.452 646.264 402.853C650.213 441.255 657.122 492.793 657.122 492.793C657.122 492.793 678.837 482.688 690.681 485.719C702.526 488.751 694.63 424.075 694.63 424.075C694.63 424.075 791.36 471.572 800.244 465.508C809.127 459.445 811.101 417.001 811.101 417.001L786.425 411.948Z" fill="#2F2E41"/>
<path opacity="0.1" d="M786.425 411.948H758.788L690.681 384.663C690.681 384.663 642.316 364.452 646.264 402.853C650.213 441.255 657.122 492.793 657.122 492.793C657.122 492.793 678.837 482.688 690.681 485.719C702.526 488.751 694.63 424.075 694.63 424.075C694.63 424.075 791.36 471.572 800.244 465.508C809.127 459.445 811.101 417.001 811.101 417.001L786.425 411.948Z" fill="black"/>
<path d="M742.882 323.336L709.435 372.536L631.459 439.233C631.459 439.233 559.404 456.413 569.275 468.54C579.145 480.666 639.355 456.413 639.355 456.413C639.355 456.413 729.176 389.716 732.137 384.663C735.098 379.61 767.671 332.114 767.671 332.114L742.882 323.336Z" fill="#A0616A"/>
<path opacity="0.1" d="M742.882 323.336L709.435 372.536L631.459 439.233C631.459 439.233 559.404 456.413 569.275 468.54C579.145 480.666 639.355 456.413 639.355 456.413C639.355 456.413 729.176 389.716 732.137 384.663C735.098 379.61 767.671 332.114 767.671 332.114L742.882 323.336Z" fill="black"/>
<path d="M762.736 283.607L741.021 327.061C741.021 327.061 745.956 348.283 753.852 350.304C761.749 352.325 795.308 324.029 795.308 324.029L762.736 283.607Z" fill="#D0CDE1"/>
<path opacity="0.1" d="M762.736 283.607L741.021 327.061C741.021 327.061 745.956 348.283 753.852 350.304C761.749 352.325 795.308 324.029 795.308 324.029L762.736 283.607Z" fill="black"/>
<path d="M500.181 391.737L494.259 414.98L519.923 499.867L525.844 473.592L500.181 391.737Z" fill="#F2F2F2"/>
<path opacity="0.1" d="M629.485 518.057C628.497 521.089 526.832 517.046 525.845 516.036C524.984 514.77 524.256 513.415 523.673 511.994H629.554C629.682 515.197 629.682 517.451 629.485 518.057Z" fill="black"/>
<path d="M747.93 269.459C723.399 269.459 703.513 249.099 703.513 223.983C703.513 198.868 723.399 178.508 747.93 178.508C772.461 178.508 792.347 198.868 792.347 223.983C792.347 249.099 772.461 269.459 747.93 269.459Z" fill="#A0616A"/>
<path d="M750.891 264.406C750.891 264.406 765.697 290.681 768.658 304.829C771.619 318.977 813.075 276.533 813.075 276.533L818.504 261.88C818.504 261.88 779.516 243.184 782.477 228.026C785.438 212.867 750.891 264.406 750.891 264.406Z" fill="#A0616A"/>
<path d="M797.282 428.117L785.438 447.318L714.748 424.549C699.238 419.553 682.23 421.391 668.473 430.265C656.135 438.223 648.238 450.855 666.005 469.55C701.539 506.941 725.228 486.73 725.228 486.73C725.228 486.73 844.661 544.332 864.401 516.036C884.142 487.74 885.129 473.593 885.129 473.593C885.129 473.593 809.127 425.085 797.282 428.117Z" fill="#2F2E41"/>
<path d="M649.225 494.814C649.225 494.814 617.64 516.036 655.148 526.142C692.655 536.247 720.293 522.099 720.293 522.099C720.293 522.099 752.865 522.099 752.865 504.92C752.865 487.74 742.008 485.719 742.008 485.719L708.448 490.772C708.448 490.772 667.979 479.656 649.225 494.814Z" fill="#2F2E41"/>
<path d="M711.493 212.544C708.469 213.924 705.472 215.557 702.185 215.957C698.898 216.358 695.155 215.183 693.6 212.192C692.76 210.576 692.664 208.675 692.625 206.845C692.506 201.296 692.898 195.297 696.333 191.003C698.519 188.27 701.71 186.547 703.972 183.88C705.593 181.969 706.672 179.654 707.834 177.42C712.234 168.958 718.75 160.826 727.805 158.386C731.586 157.368 735.553 157.417 739.462 157.474L762.265 157.803C765.955 157.856 769.702 157.918 773.235 159.012C780.575 161.284 785.919 167.603 790.813 173.646C794.475 178.168 798.146 182.736 800.894 187.891C804.834 195.415 806.827 203.846 806.681 212.382C806.712 214.571 806.436 216.753 805.862 218.862C805.19 220.796 804.357 222.668 803.374 224.456C799.097 233.056 796.558 243.797 801.374 252.092C793.008 248.594 784.731 244.006 779.213 236.68C776.744 233.402 774.808 229.565 771.518 227.16C768.228 224.755 762.867 224.546 760.756 228.076C760.03 229.504 759.657 231.092 759.667 232.702C759.513 235.351 759.517 238.103 758.42 240.508C757.323 242.913 754.709 244.853 752.214 244.133C747.916 242.894 748.328 236.141 745.018 233.074C742.504 230.744 738.626 231.189 735.396 230.132C731.634 228.9 728.81 225.562 727.202 221.868C725.979 219.06 725.996 211.712 723.683 210.192C720.781 208.285 714.182 211.316 711.493 212.544Z" fill="#2F2E41"/>
<path d="M822.03 257.086C820.032 256.54 817.928 256.546 815.932 257.102C809.596 258.843 795.393 263.454 792.347 270.469C788.399 279.564 774.58 293.712 774.58 293.712C774.58 293.712 755.827 312.913 759.775 326.05C763.723 339.188 778.529 354.346 778.529 354.346C778.529 354.346 774.58 417.001 794.321 433.17C814.062 449.339 821.959 438.223 821.959 453.381C821.959 468.54 883.155 516.036 895 486.73C895 486.73 889.078 432.159 891.052 412.959C892.997 394.035 890.149 275.967 822.03 257.086Z" fill="#2F2E41"/>
<path d="M790.373 282.596C790.373 282.596 730.163 328.071 741.021 347.272C741.021 347.272 777.541 365.462 785.438 364.452C793.334 363.441 823.932 328.071 831.829 325.04C839.725 322.008 843.673 267.438 790.373 282.596Z" fill="#D0CDE1"/>
<path d="M350.011 264.13C368.668 264.13 383.792 248.693 383.792 229.65C383.792 210.607 368.668 195.169 350.011 195.169C331.355 195.169 316.231 210.607 316.231 229.65C316.231 248.693 331.355 264.13 350.011 264.13Z" fill="#FBBD5E"/>
<path d="M629.02 184.869H439.72V144.437H629.02V184.869ZM440.554 184.017H628.186V145.288H440.554V184.017Z" fill="#3F3D56"/>
<path d="M615.26 152.523H426.795V192.104H615.26V152.523Z" fill="#004E92"/>
<path d="M307.657 114.751C309.269 114.751 310.575 113.418 310.575 111.772C310.575 110.127 309.269 108.793 307.657 108.793C306.045 108.793 304.738 110.127 304.738 111.772C304.738 113.418 306.045 114.751 307.657 114.751Z" fill="#040F3D"/>
<path d="M317.664 114.751C319.276 114.751 320.582 113.418 320.582 111.772C320.582 110.127 319.276 108.793 317.664 108.793C316.052 108.793 314.745 110.127 314.745 111.772C314.745 113.418 316.052 114.751 317.664 114.751Z" fill="#040F3D"/>
<path d="M327.671 114.751C329.283 114.751 330.589 113.418 330.589 111.772C330.589 110.127 329.283 108.793 327.671 108.793C326.059 108.793 324.752 110.127 324.752 111.772C324.752 113.418 326.059 114.751 327.671 114.751Z" fill="#040F3D"/>
<path d="M650.397 336.914H299.318V103.686H650.397V336.914ZM300.152 336.063H649.563V104.537H300.152V336.063Z" fill="#3F3D56"/>
<path d="M649.98 116.596H299.734V117.448H649.98V116.596Z" fill="#3F3D56"/>
<path d="M308.491 113.9C307.831 113.9 307.186 113.7 306.638 113.326C306.089 112.952 305.661 112.42 305.409 111.798C305.156 111.176 305.09 110.492 305.219 109.831C305.348 109.171 305.666 108.564 306.132 108.088C306.599 107.612 307.193 107.287 307.84 107.156C308.487 107.025 309.158 107.092 309.767 107.35C310.377 107.607 310.898 108.044 311.264 108.604C311.631 109.164 311.826 109.822 311.826 110.495C311.825 111.398 311.474 112.263 310.848 112.902C310.223 113.54 309.375 113.899 308.491 113.9ZM308.491 107.942C307.996 107.942 307.512 108.092 307.101 108.372C306.689 108.653 306.369 109.052 306.179 109.518C305.99 109.985 305.94 110.498 306.037 110.994C306.134 111.489 306.372 111.944 306.722 112.301C307.072 112.658 307.517 112.901 308.003 113C308.488 113.098 308.991 113.048 309.448 112.855C309.905 112.661 310.296 112.334 310.571 111.914C310.846 111.494 310.992 111 310.992 110.495C310.992 109.818 310.728 109.169 310.259 108.691C309.79 108.212 309.154 107.943 308.491 107.942V107.942Z" fill="#3F3D56"/>
<path d="M318.498 113.9C317.838 113.9 317.193 113.7 316.644 113.326C316.096 112.952 315.668 112.42 315.416 111.798C315.163 111.176 315.097 110.492 315.226 109.831C315.355 109.171 315.672 108.564 316.139 108.088C316.605 107.612 317.2 107.287 317.847 107.156C318.494 107.025 319.165 107.092 319.774 107.35C320.384 107.607 320.905 108.044 321.271 108.604C321.638 109.164 321.833 109.822 321.833 110.495C321.832 111.398 321.481 112.263 320.855 112.902C320.23 113.54 319.382 113.899 318.498 113.9V113.9ZM318.498 107.942C318.003 107.942 317.519 108.092 317.108 108.372C316.696 108.653 316.376 109.052 316.186 109.518C315.997 109.985 315.947 110.498 316.044 110.994C316.14 111.489 316.379 111.944 316.729 112.301C317.079 112.658 317.524 112.901 318.01 113C318.495 113.098 318.998 113.048 319.455 112.855C319.912 112.661 320.303 112.334 320.578 111.914C320.853 111.494 320.999 111 320.999 110.495C320.999 109.818 320.735 109.169 320.266 108.691C319.797 108.212 319.161 107.943 318.498 107.942V107.942Z" fill="#3F3D56"/>
<path d="M328.505 113.9C327.845 113.9 327.2 113.7 326.652 113.326C326.103 112.952 325.675 112.42 325.423 111.798C325.171 111.176 325.104 110.492 325.233 109.831C325.362 109.171 325.68 108.564 326.146 108.088C326.613 107.612 327.207 107.287 327.854 107.156C328.501 107.025 329.172 107.092 329.781 107.35C330.391 107.607 330.912 108.044 331.278 108.604C331.645 109.164 331.84 109.822 331.84 110.495C331.839 111.398 331.488 112.263 330.862 112.902C330.237 113.54 329.389 113.899 328.505 113.9V113.9ZM328.505 107.942C328.01 107.942 327.526 108.092 327.115 108.372C326.703 108.653 326.383 109.052 326.193 109.518C326.004 109.985 325.955 110.498 326.051 110.994C326.148 111.489 326.386 111.944 326.736 112.301C327.086 112.658 327.531 112.901 328.017 113C328.502 113.098 329.005 113.048 329.462 112.855C329.919 112.661 330.31 112.334 330.585 111.914C330.86 111.494 331.006 111 331.006 110.495C331.006 109.818 330.742 109.169 330.273 108.691C329.804 108.212 329.168 107.943 328.505 107.942V107.942Z" fill="#3F3D56"/>
<path d="M410.115 117.022H409.281V336.819H410.115V117.022Z" fill="#3F3D56"/>
<path d="M510.395 225.088H449.102V233.6H510.395V225.088Z" fill="#F2F2F2"/>
<path d="M606.712 225.088H545.419V233.6H606.712V225.088Z" fill="#F2F2F2"/>
<path d="M514.147 229.769H452.021V220.406H514.147V229.769ZM452.854 228.918H513.313V221.257H452.854V228.918Z" fill="#3F3D56"/>
<path d="M510.395 291.056H449.102V299.568H510.395V291.056Z" fill="#F2F2F2"/>
<path d="M514.147 295.737H452.021V286.374H514.147V295.737ZM452.854 294.886H513.313V287.225H452.854V294.886Z" fill="#3F3D56"/>
<path d="M606.921 257.221H449.31V265.733H606.921V257.221Z" fill="#F2F2F2"/>
<path d="M610.673 262.753H452.229V253.39H610.673V262.753ZM453.063 261.902H609.84V254.241H453.063V261.902Z" fill="#3F3D56"/>
<path d="M610.465 229.769H548.338V220.406H610.465V229.769ZM549.172 228.918H609.631V221.257H549.172V228.918Z" fill="#3F3D56"/>
<path d="M355.728 255.112C348.944 255.112 342.313 253.058 336.672 249.211C331.031 245.364 326.635 239.896 324.039 233.499C321.443 227.102 320.764 220.062 322.087 213.271C323.411 206.479 326.677 200.241 331.474 195.345C336.271 190.448 342.383 187.114 349.037 185.763C355.69 184.412 362.587 185.105 368.854 187.755C375.122 190.405 380.479 194.892 384.248 200.65C388.017 206.407 390.028 213.176 390.028 220.101C390.018 229.383 386.401 238.282 379.971 244.846C373.54 251.409 364.822 255.101 355.728 255.112ZM355.728 186.151C349.15 186.151 342.719 188.142 337.25 191.873C331.78 195.603 327.517 200.905 324.999 207.109C322.482 213.312 321.823 220.139 323.107 226.724C324.39 233.31 327.558 239.359 332.209 244.107C336.861 248.855 342.787 252.089 349.239 253.398C355.691 254.708 362.379 254.036 368.456 251.467C374.534 248.897 379.729 244.545 383.383 238.962C387.038 233.379 388.989 226.816 388.989 220.101C388.979 211.1 385.471 202.471 379.236 196.106C373.001 189.741 364.546 186.161 355.728 186.151Z" fill="#3F3D56"/>
</svg>
