<svg width="944" height="832" viewBox="0 0 944 832" fill="none" xmlns="http://www.w3.org/2000/svg">
<path d="M943.63 467.296C934.942 275.862 775.299 127.836 587.06 136.674C410.986 144.94 270.082 288.234 261.955 467.296H213.639L168.014 392.464C165.144 387.758 160.086 384.896 154.641 384.896H15.8266C7.13805 384.894 0.0936072 392.058 0.0916406 400.894C0.0916406 403.874 0.909756 406.796 2.45356 409.328L47.8747 483.792L2.45356 558.272C-2.12474 565.782 0.148673 575.644 7.53334 580.302C10.0231 581.872 12.8963 582.704 15.8266 582.704H154.639C160.084 582.704 165.142 579.842 168.012 575.136L214.251 499.296H261.953C270.642 690.73 430.285 838.756 618.524 829.918C806.763 821.08 952.319 658.732 943.63 467.296ZM145.875 550.704H44.0516L74.7938 500.304H176.571L145.875 550.704ZM74.841 467.296L44.0516 416.896H145.875L176.618 467.296H74.841ZM603.583 798.32C438.466 798.538 302.206 667 293.829 499.296H358.098C366.786 636.862 483.49 741.22 618.76 732.382C754.03 723.544 856.647 604.862 847.956 467.296C839.266 329.73 722.564 225.372 587.294 234.21C464.138 242.256 366.008 342.05 358.098 467.296H293.829C302.254 299.944 438.002 168.57 602.777 168.304C773.848 168.078 912.709 308.928 912.931 482.902C913.154 656.876 774.654 798.094 603.583 798.32ZM602.761 467.296H586.651C595.339 458.202 609.633 457.992 618.575 466.828C627.517 475.664 627.724 490.2 619.035 499.296C610.347 508.392 596.053 508.6 587.109 499.762C586.954 499.608 586.8 499.452 586.651 499.296H602.761C611.45 499.296 618.494 492.132 618.494 483.296C618.494 474.46 611.45 467.296 602.761 467.296ZM618.827 535.86C647.372 527.024 663.469 496.326 654.779 467.298C646.09 438.268 615.904 421.898 587.361 430.736C570.133 436.068 556.652 449.78 551.409 467.298H485.645C494.334 401.456 553.863 355.242 618.609 364.078C683.354 372.914 728.794 433.454 720.106 499.298C711.417 565.142 651.888 611.354 587.143 602.518C534.303 595.306 492.737 553.036 485.645 499.298H551.409C560.098 528.326 590.283 544.696 618.827 535.86ZM618.516 634.742C700.76 625.906 760.39 550.938 751.702 467.296C743.013 383.656 669.296 323.014 587.05 331.85C516.798 339.398 461.286 395.85 453.864 467.296H389.564C398.252 347.444 500.835 257.448 618.685 266.286C736.535 275.124 825.031 379.446 816.341 499.296C807.65 619.146 705.069 709.144 587.219 700.308C481.454 692.378 397.361 606.856 389.564 499.296H453.864C462.553 582.938 536.27 643.578 618.516 634.742Z" fill="#FFD86E"/>
<path d="M283.194 0H157.33V32H283.194V0Z" fill="#FFD86E"/>
<path d="M409.058 112H283.194V144H409.058V112Z" fill="#FFD86E"/>
<path d="M125.864 0H94.3981V32H125.864V0Z" fill="#FFD86E"/>
<path d="M188.796 304H62.9319V336H188.796V304Z" fill="black"/>
<path d="M31.466 304H0V336H31.466V304Z" fill="black"/>
<path d="M220.262 656H125.864V688H220.262V656Z" fill="black"/>
<path d="M94.3979 656H62.9319V688H94.3979V656Z" fill="black"/>
<path d="M346.126 800H314.66V832H346.126V800Z" fill="black"/>
</svg>
